C:\Users\Nick\Projects\MRSDeviceOpt\results\experiments\subject01\walk3\expdata\ground_reaction.mot
version=1
nRows=55
nColumns=19
inDegrees=no
endheader
time	ground_force_r_vx	ground_force_r_vy	ground_force_r_vz	ground_force_r_px	ground_force_r_py	ground_force_r_pz	ground_force_l_vx	ground_force_l_vy	ground_force_l_vz	ground_force_l_px	ground_force_l_py	ground_force_l_pz	ground_torque_r_x	ground_torque_r_y	ground_torque_r_z	ground_torque_l_x	ground_torque_l_y	ground_torque_l_z
0.800000	-0.110856	0.082247	-0.309987	0.000000	0.000000	0.000000	2.772639	534.960999	16.141750	0.786310	0.000000	-0.557293	0.000000	0.000000	0.000000	0.000000	-2.651522	0.000000
0.801000	-0.133808	0.099631	-0.372602	0.000000	0.000000	0.000000	3.616495	536.787048	17.118301	0.786206	0.000000	-0.557265	0.000000	0.000000	0.000000	0.000000	-2.629099	0.000000
0.802000	-0.156801	0.117062	-0.435248	0.000000	0.000000	0.000000	4.483101	538.679688	18.114092	0.786061	0.000000	-0.557230	0.000000	0.000000	0.000000	0.000000	-2.606921	0.000000
0.803000	-0.179456	0.134263	-0.496870	0.000000	0.000000	0.000000	5.366289	540.631897	19.119400	0.785873	0.000000	-0.557190	0.000000	0.000000	0.000000	0.000000	-2.585168	0.000000
0.804000	-0.201409	0.150959	-0.556444	0.000000	0.000000	0.000000	6.260706	542.638000	20.125204	0.785640	0.000000	-0.557145	0.000000	0.000000	0.000000	0.000000	-2.564020	0.000000
0.805000	-0.222302	0.166888	-0.612981	0.000000	0.000000	0.000000	7.161715	544.693298	21.123093	0.785360	0.000000	-0.557096	0.000000	0.000000	0.000000	0.000000	-2.543662	0.000000
0.806000	-0.241798	0.181795	-0.665543	0.000000	0.000000	0.000000	8.065356	546.793579	22.105230	0.785032	0.000000	-0.557042	0.000000	0.000000	0.000000	0.000000	-2.524275	0.000000
0.807000	-0.259579	0.195440	-0.713260	0.000000	0.000000	0.000000	8.968371	548.934937	23.064400	0.784655	0.000000	-0.556984	0.000000	0.000000	0.000000	0.000000	-2.506040	0.000000
0.808000	-0.275356	0.207603	-0.755346	0.000000	0.000000	0.000000	9.868217	551.113770	23.994034	0.784228	0.000000	-0.556923	0.000000	0.000000	0.000000	0.000000	-2.489133	0.000000
0.809000	-0.288875	0.218090	-0.791126	0.000000	0.000000	0.000000	10.763090	553.326599	24.888283	0.783750	0.000000	-0.556859	0.000000	0.000000	0.000000	0.000000	-2.473726	0.000000
0.810000	-0.299929	0.226738	-0.820050	0.000000	0.000000	0.000000	11.651930	555.570190	25.742052	0.783221	0.000000	-0.556793	0.000000	0.000000	0.000000	0.000000	-2.459981	0.000000
0.811000	-0.308358	0.233421	-0.841711	0.000000	0.000000	0.000000	12.534399	557.841309	26.551052	0.782641	0.000000	-0.556725	0.000000	0.000000	0.000000	0.000000	-2.448052	0.000000
0.812000	-0.314060	0.238053	-0.855862	0.000000	0.000000	0.000000	13.410841	560.136963	27.311825	0.782009	0.000000	-0.556655	0.000000	0.000000	0.000000	0.000000	-2.438082	0.000000
0.813000	-0.316990	0.240592	-0.862423	0.000000	0.000000	0.000000	14.282202	562.454346	28.021765	0.781326	0.000000	-0.556585	0.000000	0.000000	0.000000	0.000000	-2.430202	0.000000
0.814000	-0.317169	0.241043	-0.861481	0.000000	0.000000	0.000000	15.149939	564.790833	28.679125	0.780592	0.000000	-0.556514	0.000000	0.000000	0.000000	0.000000	-2.424529	0.000000
0.815000	-0.314674	0.239458	-0.853290	0.000000	0.000000	0.000000	16.015894	567.144104	29.283010	0.779808	0.000000	-0.556443	0.000000	0.000000	0.000000	0.000000	-2.421164	0.000000
0.816000	-0.309642	0.235931	-0.838257	0.000000	0.000000	0.000000	16.882160	569.512024	29.833361	0.778975	0.000000	-0.556372	0.000000	0.000000	0.000000	0.000000	-2.420194	0.000000
0.817000	-0.302260	0.230595	-0.816927	0.000000	0.000000	0.000000	17.750933	571.892700	30.330919	0.778095	0.000000	-0.556302	0.000000	0.000000	0.000000	0.000000	-2.421688	0.000000
0.818000	-0.292759	0.223620	-0.789958	0.000000	0.000000	0.000000	18.624363	574.284668	30.777195	0.777167	0.000000	-0.556233	0.000000	0.000000	0.000000	0.000000	-2.425698	0.000000
0.819000	-0.281407	0.215202	-0.758096	0.000000	0.000000	0.000000	19.504417	576.686768	31.174406	0.776194	0.000000	-0.556166	0.000000	0.000000	0.000000	0.000000	-2.432257	0.000000
0.820000	-0.268494	0.205557	-0.722147	0.000000	0.000000	0.000000	20.392744	579.098083	31.525427	0.775178	0.000000	-0.556100	0.000000	0.000000	0.000000	0.000000	-2.441379	0.000000
0.821000	-0.254324	0.194912	-0.682949	0.000000	0.000000	0.000000	21.290585	581.518188	31.833712	0.774119	0.000000	-0.556035	0.000000	0.000000	0.000000	0.000000	-2.453062	0.000000
0.822000	-0.239204	0.183500	-0.641341	0.000000	0.000000	0.000000	22.198685	583.946899	32.103226	0.773021	0.000000	-0.555973	0.000000	0.000000	0.000000	0.000000	-2.467281	0.000000
0.823000	-0.223436	0.171547	-0.598137	0.000000	0.000000	0.000000	23.117266	586.384460	32.338360	0.771884	0.000000	-0.555913	0.000000	0.000000	0.000000	0.000000	-2.483996	0.000000
0.824000	-0.207306	0.159272	-0.554108	0.000000	0.000000	0.000000	24.046015	588.831299	32.543835	0.770712	0.000000	-0.555855	0.000000	0.000000	0.000000	0.000000	-2.503147	0.000000
0.825000	-0.191079	0.146876	-0.509959	0.000000	0.000000	0.000000	24.984110	591.288147	32.724613	0.769505	0.000000	-0.555800	0.000000	0.000000	0.000000	0.000000	-2.524656	0.000000
0.826000	-0.174992	0.134539	-0.466317	0.000000	0.000000	0.000000	25.930300	593.756042	32.885811	0.768266	0.000000	-0.555748	0.000000	0.000000	0.000000	0.000000	-2.548429	0.000000
0.827000	-0.159250	0.122418	-0.423722	0.000000	0.000000	0.000000	26.882978	596.236023	33.032585	0.766998	0.000000	-0.555698	0.000000	0.000000	0.000000	0.000000	-2.574356	0.000000
0.828000	-0.144025	0.110644	-0.382622	0.000000	0.000000	0.000000	27.840315	598.729370	33.170036	0.765703	0.000000	-0.555651	0.000000	0.000000	0.000000	0.000000	-2.602309	0.000000
0.829000	-0.129456	0.099323	-0.343372	0.000000	0.000000	0.000000	28.800379	601.237366	33.303120	0.764382	0.000000	-0.555607	0.000000	0.000000	0.000000	0.000000	-2.632149	0.000000
0.830000	-0.115648	0.088533	-0.306237	0.000000	0.000000	0.000000	29.761282	603.761292	33.436539	0.763038	0.000000	-0.555566	0.000000	0.000000	0.000000	0.000000	-2.663723	0.000000
0.831000	-0.102674	0.078326	-0.271395	0.000000	0.000000	0.000000	30.721310	606.302429	33.574665	0.761673	0.000000	-0.555527	0.000000	0.000000	0.000000	0.000000	-2.696866	0.000000
0.832000	-0.090577	0.068734	-0.238948	0.000000	0.000000	0.000000	31.679043	608.861816	33.721436	0.760289	0.000000	-0.555491	0.000000	0.000000	0.000000	0.000000	-2.731403	0.000000
0.833000	-0.079376	0.059763	-0.208926	0.000000	0.000000	0.000000	32.633469	611.440552	33.880302	0.758888	0.000000	-0.555458	0.000000	0.000000	0.000000	0.000000	-2.767152	0.000000
0.834000	-0.069065	0.051403	-0.181300	0.000000	0.000000	0.000000	33.584049	614.039490	34.054153	0.757473	0.000000	-0.555427	0.000000	0.000000	0.000000	0.000000	-2.803920	0.000000
0.835000	-0.059620	0.043627	-0.155988	0.000000	0.000000	0.000000	34.530769	616.659241	34.245262	0.756045	0.000000	-0.555399	0.000000	0.000000	0.000000	0.000000	-2.841513	0.000000
0.836000	-0.051000	0.036393	-0.132868	0.000000	0.000000	0.000000	35.474144	619.300476	34.455242	0.754605	0.000000	-0.555374	0.000000	0.000000	0.000000	0.000000	-2.879730	0.000000
0.837000	-0.043150	0.029650	-0.111784	0.000000	0.000000	0.000000	36.415184	621.963501	34.685043	0.753157	0.000000	-0.555350	0.000000	0.000000	0.000000	0.000000	-2.918369	0.000000
0.838000	-0.036010	0.023334	-0.092555	0.000000	0.000000	0.000000	37.355339	624.648560	34.934937	0.751701	0.000000	-0.555329	0.000000	0.000000	0.000000	0.000000	-2.957227	0.000000
0.839000	-0.029507	0.017378	-0.074985	0.000000	0.000000	0.000000	38.296391	627.355774	35.204517	0.750238	0.000000	-0.555310	0.000000	0.000000	0.000000	0.000000	-2.996103	0.000000
0.840000	-0.023570	0.011707	-0.058865	0.000000	0.000000	0.000000	39.240349	630.085205	35.492756	0.748771	0.000000	-0.555293	0.000000	0.000000	0.000000	0.000000	-3.034796	0.000000
0.841000	-0.018119	0.006247	-0.043980	0.000000	0.000000	0.000000	40.189293	632.836853	35.798016	0.747301	0.000000	-0.555278	0.000000	0.000000	0.000000	0.000000	-3.073112	0.000000
0.842000	-0.013080	0.000917	-0.030117	0.000000	0.000000	0.000000	41.145252	635.610718	36.118141	0.745829	0.000000	-0.555265	0.000000	0.000000	0.000000	0.000000	-3.110859	0.000000
0.843000	-0.008377	-0.004358	-0.017068	0.000000	0.000000	0.000000	42.110046	638.406677	36.450520	0.744356	0.000000	-0.555253	0.000000	0.000000	0.000000	0.000000	-3.147856	0.000000
0.844000	-0.003936	-0.009653	-0.004632	0.000000	0.000000	0.000000	43.085155	641.224670	36.792171	0.742884	0.000000	-0.555242	0.000000	0.000000	0.000000	0.000000	-3.183926	0.000000
0.845000	0.000311	-0.015041	0.007381	0.000000	0.000000	0.000000	44.071625	644.064758	37.139862	0.741412	0.000000	-0.555233	0.000000	0.000000	0.000000	0.000000	-3.218903	0.000000
0.846000	0.004428	-0.020586	0.019141	0.000000	0.000000	0.000000	45.069965	646.926880	37.490181	0.739944	0.000000	-0.555225	0.000000	0.000000	0.000000	0.000000	-3.252631	0.000000
0.847000	0.008473	-0.026348	0.030805	0.000000	0.000000	0.000000	46.080124	649.811035	37.839680	0.738478	0.000000	-0.555217	0.000000	0.000000	0.000000	0.000000	-3.284966	0.000000
0.848000	0.012494	-0.032375	0.042503	0.000000	0.000000	0.000000	47.101456	652.717163	38.184967	0.737016	0.000000	-0.555211	0.000000	0.000000	0.000000	0.000000	-3.315775	0.000000
0.849000	0.016534	-0.038703	0.054340	0.000000	0.000000	0.000000	48.132767	655.645264	38.522812	0.735558	0.000000	-0.555205	0.000000	0.000000	0.000000	0.000000	-3.344938	0.000000
0.850000	0.020625	-0.045357	0.066393	0.000000	0.000000	0.000000	49.172367	658.595215	38.850258	0.734106	0.000000	-0.555200	0.000000	0.000000	0.000000	0.000000	-3.372348	0.000000
0.851000	0.024787	-0.052342	0.078703	0.000000	0.000000	0.000000	50.218166	661.566833	39.164692	0.732659	0.000000	-0.555195	0.000000	0.000000	0.000000	0.000000	-3.397911	0.000000
0.852000	0.029029	-0.059645	0.091276	0.000000	0.000000	0.000000	51.267792	664.559814	39.463943	0.731219	0.000000	-0.555191	0.000000	0.000000	0.000000	0.000000	-3.421548	0.000000
0.853000	0.033348	-0.067232	0.104074	0.000000	0.000000	0.000000	52.318726	667.573792	39.746334	0.729784	0.000000	-0.555187	0.000000	0.000000	0.000000	0.000000	-3.443194	0.000000
0.854000	0.037723	-0.075043	0.117015	0.000000	0.000000	0.000000	53.368435	670.608032	40.010735	0.728357	0.000000	-0.555183	0.000000	0.000000	0.000000	0.000000	-3.462797	0.000000
